# xmcd
#
# Track frame offsets:
#	150
#	12737
#	25425
#	36812
#	50305
#	62902
#	76350
#	88137
#	101190
#	113302
#	125275
#	136815
#	149450
#	161672
#	173100
#	186525
#	198750
#	211800
#	224127
#	235977
#	248325
#	260205
#	272480
#	284070
#	296462
#
# Disc length: 4101 seconds
#
# Revision: 2
# Processed by: cddbd v1.5.2PL0 Copyright (c) Steve Scherf et al.
# Submitted via: audiograbber 1.83.01
#
DISCID=7f100319
DTITLE=Champion Jack Dupree - New Orleans Barrelhouse Boogie
DYEAR=1900
DGENRE=
TTITLE0=Gamblin' Man Blues
TTITLE1=Warehouse Man Blues
TTITLE2=Chain Gang Blues
TTITLE3=New Low Down Dog
TTITLE4=Black Woman Swing
TTITLE5=Gabbage Greens No. 1
TTITLE6=Gabbage Greens No. 2
TTITLE7=Angola Blues
TTITLE8=My Cabin Inn
TTITLE9=Bad Health Blues
TTITLE10=That's Allright
TTITLE11=Gibin'  Blues
TTITLE12=Dupree Shake Dance
TTITLE13=My Baby's Gone
TTITLE14=Weed Head Woman
TTITLE15=Junker's Blues
TTITLE16=Oh Red
TTITLE17=All Alone Blues
TTITLE18=Big Time Mama
TTITLE19=Shady Lane
TTITLE20=Hurry Down Sunshine
TTITLE21=Jackie P. Blues
TTITLE22=Heavy Harth Blues
TTITLE23=Mornin' Tea
TTITLE24=Black Cow Blues
EXTD=
EXTT0=
EXTT1=
EXTT2=
EXTT3=
EXTT4=
EXTT5=
EXTT6=
EXTT7=
EXTT8=
EXTT9=
EXTT10=
EXTT11=
EXTT12=
EXTT13=
EXTT14=
EXTT15=
EXTT16=
EXTT17=
EXTT18=
EXTT19=
EXTT20=
EXTT21=
EXTT22=
EXTT23=
EXTT24=
PLAYORDER=
